<mxfile host="app.diagrams.net" modified="2023-11-10T14:57:12.160Z" agent="Mozilla/5.0 (Windows NT 10.0; Win64; x64) AppleWebKit/537.36 (KHTML, like Gecko) Chrome/119.0.0.0 Safari/537.36" etag="xKexw529s9zfuEI2jtC-" version="22.1.0" type="device">
  <diagram name="P치gina-1" id="1X8Iny33pq9lPDNBV9mD">
    <mxGraphModel dx="1909" dy="1013" grid="1" gridSize="10" guides="1" tooltips="1" connect="1" arrows="1" fold="1" page="1" pageScale="1" pageWidth="827" pageHeight="1169" math="0" shadow="0">
      <root>
        <mxCell id="0" />
        <mxCell id="1" parent="0" />
        <mxCell id="LVyIuK751i1x7JXOCKPr-1" value="Usuario" style="swimlane;fontStyle=0;childLayout=stackLayout;horizontal=1;startSize=26;horizontalStack=0;resizeParent=1;resizeParentMax=0;resizeLast=0;collapsible=1;marginBottom=0;align=center;fontSize=14;" vertex="1" parent="1">
          <mxGeometry x="350" y="40" width="160" height="266" as="geometry" />
        </mxCell>
        <mxCell id="LVyIuK751i1x7JXOCKPr-2" value="&lt;b&gt;id&lt;/b&gt;" style="text;strokeColor=none;fillColor=none;spacingLeft=4;spacingRight=4;overflow=hidden;rotatable=0;points=[[0,0.5],[1,0.5]];portConstraint=eastwest;fontSize=12;whiteSpace=wrap;html=1;" vertex="1" parent="LVyIuK751i1x7JXOCKPr-1">
          <mxGeometry y="26" width="160" height="30" as="geometry" />
        </mxCell>
        <mxCell id="LVyIuK751i1x7JXOCKPr-3" value="Nombre" style="text;strokeColor=none;fillColor=none;spacingLeft=4;spacingRight=4;overflow=hidden;rotatable=0;points=[[0,0.5],[1,0.5]];portConstraint=eastwest;fontSize=12;whiteSpace=wrap;html=1;" vertex="1" parent="LVyIuK751i1x7JXOCKPr-1">
          <mxGeometry y="56" width="160" height="30" as="geometry" />
        </mxCell>
        <mxCell id="LVyIuK751i1x7JXOCKPr-4" value="Apellidos" style="text;strokeColor=none;fillColor=none;spacingLeft=4;spacingRight=4;overflow=hidden;rotatable=0;points=[[0,0.5],[1,0.5]];portConstraint=eastwest;fontSize=12;whiteSpace=wrap;html=1;" vertex="1" parent="LVyIuK751i1x7JXOCKPr-1">
          <mxGeometry y="86" width="160" height="30" as="geometry" />
        </mxCell>
        <mxCell id="LVyIuK751i1x7JXOCKPr-5" value="Telefono" style="text;strokeColor=none;fillColor=none;spacingLeft=4;spacingRight=4;overflow=hidden;rotatable=0;points=[[0,0.5],[1,0.5]];portConstraint=eastwest;fontSize=12;whiteSpace=wrap;html=1;" vertex="1" parent="LVyIuK751i1x7JXOCKPr-1">
          <mxGeometry y="116" width="160" height="30" as="geometry" />
        </mxCell>
        <mxCell id="LVyIuK751i1x7JXOCKPr-6" value="Dni" style="text;strokeColor=none;fillColor=none;spacingLeft=4;spacingRight=4;overflow=hidden;rotatable=0;points=[[0,0.5],[1,0.5]];portConstraint=eastwest;fontSize=12;whiteSpace=wrap;html=1;" vertex="1" parent="LVyIuK751i1x7JXOCKPr-1">
          <mxGeometry y="146" width="160" height="30" as="geometry" />
        </mxCell>
        <mxCell id="LVyIuK751i1x7JXOCKPr-7" value="Direcci칩n" style="text;strokeColor=none;fillColor=none;spacingLeft=4;spacingRight=4;overflow=hidden;rotatable=0;points=[[0,0.5],[1,0.5]];portConstraint=eastwest;fontSize=12;whiteSpace=wrap;html=1;" vertex="1" parent="LVyIuK751i1x7JXOCKPr-1">
          <mxGeometry y="176" width="160" height="30" as="geometry" />
        </mxCell>
        <mxCell id="LVyIuK751i1x7JXOCKPr-9" value="Email" style="text;strokeColor=none;fillColor=none;spacingLeft=4;spacingRight=4;overflow=hidden;rotatable=0;points=[[0,0.5],[1,0.5]];portConstraint=eastwest;fontSize=12;whiteSpace=wrap;html=1;" vertex="1" parent="LVyIuK751i1x7JXOCKPr-1">
          <mxGeometry y="206" width="160" height="30" as="geometry" />
        </mxCell>
        <mxCell id="LVyIuK751i1x7JXOCKPr-14" value="Fecha_Nacimiento" style="text;strokeColor=none;fillColor=none;spacingLeft=4;spacingRight=4;overflow=hidden;rotatable=0;points=[[0,0.5],[1,0.5]];portConstraint=eastwest;fontSize=12;whiteSpace=wrap;html=1;" vertex="1" parent="LVyIuK751i1x7JXOCKPr-1">
          <mxGeometry y="236" width="160" height="30" as="geometry" />
        </mxCell>
        <mxCell id="LVyIuK751i1x7JXOCKPr-10" value="Cliente" style="swimlane;fontStyle=0;childLayout=stackLayout;horizontal=1;startSize=26;horizontalStack=0;resizeParent=1;resizeParentMax=0;resizeLast=0;collapsible=1;marginBottom=0;align=center;fontSize=14;" vertex="1" parent="1">
          <mxGeometry x="180" y="500" width="160" height="56" as="geometry" />
        </mxCell>
        <mxCell id="LVyIuK751i1x7JXOCKPr-11" value="NumTargeta" style="text;strokeColor=none;fillColor=none;spacingLeft=4;spacingRight=4;overflow=hidden;rotatable=0;points=[[0,0.5],[1,0.5]];portConstraint=eastwest;fontSize=12;whiteSpace=wrap;html=1;" vertex="1" parent="LVyIuK751i1x7JXOCKPr-10">
          <mxGeometry y="26" width="160" height="30" as="geometry" />
        </mxCell>
        <mxCell id="LVyIuK751i1x7JXOCKPr-15" value="Empleado" style="swimlane;fontStyle=0;childLayout=stackLayout;horizontal=1;startSize=26;horizontalStack=0;resizeParent=1;resizeParentMax=0;resizeLast=0;collapsible=1;marginBottom=0;align=center;fontSize=14;" vertex="1" parent="1">
          <mxGeometry x="520" y="500" width="160" height="56" as="geometry" />
        </mxCell>
        <mxCell id="LVyIuK751i1x7JXOCKPr-16" value="Cuenta Bancaria" style="text;strokeColor=none;fillColor=none;spacingLeft=4;spacingRight=4;overflow=hidden;rotatable=0;points=[[0,0.5],[1,0.5]];portConstraint=eastwest;fontSize=12;whiteSpace=wrap;html=1;" vertex="1" parent="LVyIuK751i1x7JXOCKPr-15">
          <mxGeometry y="26" width="160" height="30" as="geometry" />
        </mxCell>
        <mxCell id="LVyIuK751i1x7JXOCKPr-19" value="" style="strokeWidth=2;html=1;shape=mxgraph.flowchart.extract_or_measurement;whiteSpace=wrap;rotation=-180;" vertex="1" parent="1">
          <mxGeometry x="382.5" y="380" width="95" height="60" as="geometry" />
        </mxCell>
        <mxCell id="LVyIuK751i1x7JXOCKPr-20" value="" style="endArrow=none;html=1;rounded=0;" edge="1" parent="1" source="LVyIuK751i1x7JXOCKPr-19" target="LVyIuK751i1x7JXOCKPr-1">
          <mxGeometry width="50" height="50" relative="1" as="geometry">
            <mxPoint x="500" y="450" as="sourcePoint" />
            <mxPoint x="550" y="400" as="targetPoint" />
          </mxGeometry>
        </mxCell>
        <mxCell id="LVyIuK751i1x7JXOCKPr-21" value="" style="endArrow=none;html=1;rounded=0;entryX=0.22;entryY=0.5;entryDx=0;entryDy=0;entryPerimeter=0;" edge="1" parent="1" source="LVyIuK751i1x7JXOCKPr-15" target="LVyIuK751i1x7JXOCKPr-19">
          <mxGeometry width="50" height="50" relative="1" as="geometry">
            <mxPoint x="520" y="460" as="sourcePoint" />
            <mxPoint x="570" y="410" as="targetPoint" />
          </mxGeometry>
        </mxCell>
        <mxCell id="LVyIuK751i1x7JXOCKPr-22" value="" style="endArrow=none;html=1;rounded=0;entryX=0.78;entryY=0.5;entryDx=0;entryDy=0;entryPerimeter=0;" edge="1" parent="1" source="LVyIuK751i1x7JXOCKPr-10" target="LVyIuK751i1x7JXOCKPr-19">
          <mxGeometry width="50" height="50" relative="1" as="geometry">
            <mxPoint x="520" y="460" as="sourcePoint" />
            <mxPoint x="570" y="410" as="targetPoint" />
          </mxGeometry>
        </mxCell>
        <mxCell id="LVyIuK751i1x7JXOCKPr-24" value="Chollo" style="swimlane;fontStyle=0;childLayout=stackLayout;horizontal=1;startSize=26;horizontalStack=0;resizeParent=1;resizeParentMax=0;resizeLast=0;collapsible=1;marginBottom=0;align=center;fontSize=14;" vertex="1" parent="1">
          <mxGeometry x="350" y="720" width="160" height="266" as="geometry" />
        </mxCell>
        <mxCell id="LVyIuK751i1x7JXOCKPr-25" value="&lt;b&gt;id&lt;/b&gt;" style="text;strokeColor=none;fillColor=none;spacingLeft=4;spacingRight=4;overflow=hidden;rotatable=0;points=[[0,0.5],[1,0.5]];portConstraint=eastwest;fontSize=12;whiteSpace=wrap;html=1;" vertex="1" parent="LVyIuK751i1x7JXOCKPr-24">
          <mxGeometry y="26" width="160" height="30" as="geometry" />
        </mxCell>
        <mxCell id="LVyIuK751i1x7JXOCKPr-26" value="Titulo" style="text;strokeColor=none;fillColor=none;spacingLeft=4;spacingRight=4;overflow=hidden;rotatable=0;points=[[0,0.5],[1,0.5]];portConstraint=eastwest;fontSize=12;whiteSpace=wrap;html=1;" vertex="1" parent="LVyIuK751i1x7JXOCKPr-24">
          <mxGeometry y="56" width="160" height="30" as="geometry" />
        </mxCell>
        <mxCell id="LVyIuK751i1x7JXOCKPr-27" value="Imagen" style="text;strokeColor=none;fillColor=none;spacingLeft=4;spacingRight=4;overflow=hidden;rotatable=0;points=[[0,0.5],[1,0.5]];portConstraint=eastwest;fontSize=12;whiteSpace=wrap;html=1;" vertex="1" parent="LVyIuK751i1x7JXOCKPr-24">
          <mxGeometry y="86" width="160" height="30" as="geometry" />
        </mxCell>
        <mxCell id="LVyIuK751i1x7JXOCKPr-28" value="Precio" style="text;strokeColor=none;fillColor=none;spacingLeft=4;spacingRight=4;overflow=hidden;rotatable=0;points=[[0,0.5],[1,0.5]];portConstraint=eastwest;fontSize=12;whiteSpace=wrap;html=1;" vertex="1" parent="LVyIuK751i1x7JXOCKPr-24">
          <mxGeometry y="116" width="160" height="30" as="geometry" />
        </mxCell>
        <mxCell id="LVyIuK751i1x7JXOCKPr-38" value="EstrellasAlojamiento" style="text;strokeColor=none;fillColor=none;spacingLeft=4;spacingRight=4;overflow=hidden;rotatable=0;points=[[0,0.5],[1,0.5]];portConstraint=eastwest;fontSize=12;whiteSpace=wrap;html=1;" vertex="1" parent="LVyIuK751i1x7JXOCKPr-24">
          <mxGeometry y="146" width="160" height="30" as="geometry" />
        </mxCell>
        <mxCell id="LVyIuK751i1x7JXOCKPr-39" value="Localizaci칩n" style="text;strokeColor=none;fillColor=none;spacingLeft=4;spacingRight=4;overflow=hidden;rotatable=0;points=[[0,0.5],[1,0.5]];portConstraint=eastwest;fontSize=12;whiteSpace=wrap;html=1;" vertex="1" parent="LVyIuK751i1x7JXOCKPr-24">
          <mxGeometry y="176" width="160" height="30" as="geometry" />
        </mxCell>
        <mxCell id="LVyIuK751i1x7JXOCKPr-29" value="Descripci칩n" style="text;strokeColor=none;fillColor=none;spacingLeft=4;spacingRight=4;overflow=hidden;rotatable=0;points=[[0,0.5],[1,0.5]];portConstraint=eastwest;fontSize=12;whiteSpace=wrap;html=1;" vertex="1" parent="LVyIuK751i1x7JXOCKPr-24">
          <mxGeometry y="206" width="160" height="30" as="geometry" />
        </mxCell>
        <mxCell id="LVyIuK751i1x7JXOCKPr-30" value="FechaCaducidad" style="text;strokeColor=none;fillColor=none;spacingLeft=4;spacingRight=4;overflow=hidden;rotatable=0;points=[[0,0.5],[1,0.5]];portConstraint=eastwest;fontSize=12;whiteSpace=wrap;html=1;" vertex="1" parent="LVyIuK751i1x7JXOCKPr-24">
          <mxGeometry y="236" width="160" height="30" as="geometry" />
        </mxCell>
        <mxCell id="LVyIuK751i1x7JXOCKPr-36" style="edgeStyle=orthogonalEdgeStyle;rounded=0;orthogonalLoop=1;jettySize=auto;html=1;endArrow=ERmandOne;endFill=0;" edge="1" parent="1" source="LVyIuK751i1x7JXOCKPr-31" target="LVyIuK751i1x7JXOCKPr-15">
          <mxGeometry relative="1" as="geometry" />
        </mxCell>
        <mxCell id="LVyIuK751i1x7JXOCKPr-37" style="edgeStyle=orthogonalEdgeStyle;rounded=0;orthogonalLoop=1;jettySize=auto;html=1;entryX=1;entryY=0.5;entryDx=0;entryDy=0;endArrow=ERzeroToMany;endFill=0;" edge="1" parent="1" source="LVyIuK751i1x7JXOCKPr-31" target="LVyIuK751i1x7JXOCKPr-27">
          <mxGeometry relative="1" as="geometry" />
        </mxCell>
        <mxCell id="LVyIuK751i1x7JXOCKPr-31" value="A침ade" style="shape=rhombus;perimeter=rhombusPerimeter;whiteSpace=wrap;html=1;align=center;" vertex="1" parent="1">
          <mxGeometry x="540" y="620" width="120" height="60" as="geometry" />
        </mxCell>
        <mxCell id="LVyIuK751i1x7JXOCKPr-34" style="edgeStyle=orthogonalEdgeStyle;rounded=0;orthogonalLoop=1;jettySize=auto;html=1;endArrow=ERzeroToMany;endFill=0;" edge="1" parent="1" source="LVyIuK751i1x7JXOCKPr-32" target="LVyIuK751i1x7JXOCKPr-10">
          <mxGeometry relative="1" as="geometry" />
        </mxCell>
        <mxCell id="LVyIuK751i1x7JXOCKPr-35" style="edgeStyle=orthogonalEdgeStyle;rounded=0;orthogonalLoop=1;jettySize=auto;html=1;entryX=0;entryY=0.5;entryDx=0;entryDy=0;endArrow=ERzeroToMany;endFill=0;" edge="1" parent="1" source="LVyIuK751i1x7JXOCKPr-32" target="LVyIuK751i1x7JXOCKPr-27">
          <mxGeometry relative="1" as="geometry" />
        </mxCell>
        <mxCell id="LVyIuK751i1x7JXOCKPr-32" value="Reserva" style="shape=rhombus;perimeter=rhombusPerimeter;whiteSpace=wrap;html=1;align=center;" vertex="1" parent="1">
          <mxGeometry x="200" y="620" width="120" height="60" as="geometry" />
        </mxCell>
        <mxCell id="LVyIuK751i1x7JXOCKPr-41" value="" style="endArrow=none;html=1;rounded=0;" edge="1" parent="1" source="LVyIuK751i1x7JXOCKPr-32" target="LVyIuK751i1x7JXOCKPr-42">
          <mxGeometry width="50" height="50" relative="1" as="geometry">
            <mxPoint x="430" y="810" as="sourcePoint" />
            <mxPoint x="180" y="650" as="targetPoint" />
          </mxGeometry>
        </mxCell>
        <mxCell id="LVyIuK751i1x7JXOCKPr-42" value="FechaCompra" style="rounded=1;arcSize=10;whiteSpace=wrap;html=1;align=center;" vertex="1" parent="1">
          <mxGeometry x="50" y="630" width="100" height="40" as="geometry" />
        </mxCell>
        <mxCell id="LVyIuK751i1x7JXOCKPr-43" value="&lt;b&gt;Usuario &lt;/b&gt;(id_pk, nombre, apellidos, telefono, dni, direccion, email, fechaNacimiento )&lt;br&gt;&lt;b&gt;Cliente&lt;/b&gt;(id_pk_fk, numTargera)&lt;br&gt;&lt;b&gt;Empleado&lt;/b&gt;(id_pk_fk, cuentaBancaria)&lt;br&gt;&lt;b&gt;Chollo(&lt;/b&gt;id_pk,&lt;b&gt;&amp;nbsp;&lt;/b&gt;Titulo, Imagen, Precio, EstrellasAlojamiento, Localizacion, Descripcion, FechaCaducidad, id_empleado_fk)&lt;br&gt;&lt;b&gt;Reserva&lt;/b&gt;(id_cliente_pk_fk, id_chollo_pk_fk, fechaCompra)" style="text;html=1;strokeColor=none;fillColor=none;align=left;verticalAlign=middle;whiteSpace=wrap;rounded=0;" vertex="1" parent="1">
          <mxGeometry x="530" y="850" width="680" height="210" as="geometry" />
        </mxCell>
      </root>
    </mxGraphModel>
  </diagram>
</mxfile>
